{
  "asset": {
    "generator": "Khronos glTF Blender I/O v3.2.43",
    "version": "2.0"
  },
  "scene": 0,
  "scenes": [
    {
      "extras": {
        "BakeTool_Jobs": {
          "is_baking": 0
        },
        "bake_settings": {
          "bake_image_name": ""
        },
        "SimpleBake_Props": {
          "presets_show": 1,
          "bake_objects_show": 1,
          "first_texture_show": 0,
          "objects_list": [
            {
              "obj_point": {
                "name": "Saloon_ID005",
                "type": "Object"
              },
              "name": "Saloon_ID005"
            },
            {
              "obj_point": {
                "name": "Props_ID004",
                "type": "Object"
              },
              "name": "Props_ID004"
            },
            {
              "obj_point": {
                "name": "Ground_ID002",
                "type": "Object"
              },
              "name": "Ground_ID002"
            },
            {
              "obj_point": {
                "name": "Buildings01_ID001",
                "type": "Object"
              },
              "name": "Buildings01_ID001"
            },
            {
              "obj_point": {
                "name": "Hotel_ID003",
                "type": "Object"
              },
              "name": "Hotel_ID003"
            },
            {
              "obj_point": {
                "name": "Vehicles_ID006",
                "type": "Object"
              },
              "name": "Vehicles_ID006"
            }
          ],
          "preset_name": "Lightmaps aggr",
          "targetobj": {},
          "targetobj_cycles": {},
          "fg_status_message": "No channel packing",
          "presets_list": [
            {
              "name": "Lightmaps aggr"
            }
          ],
          "pbr_settings_show": 0,
          "selected_col": 0,
          "apply_col_man_to_col": 0,
          "specials_show": 1,
          "selected_lightmap": 1,
          "textures_show": 1,
          "imgwidth": 2048,
          "outputwidth": 2048,
          "imgheight": 2048,
          "outputheight": 2048,
          "uv_show": 1,
          "merged_bake": 0,
          "merged_bake_name": "West",
          "new_uv_option": 1,
          "unwrapmargin": 0.0010000000474974513,
          "new_uv_method": 0,
          "other_show": 1,
          "export_show": 1,
          "save_bakes_external": 1,
          "export_path": "//Lightmaps\\",
          "export_file_format": 0,
          "everything_16bit": 1,
          "use_alpha": 0,
          "total_bake_images_number": 6,
          "current_bake_image_number": 6,
          "percent_complete": 100,
          "presets_list_index": 0,
          "channelpacking_show": 0,
          "objects_list_index": 5,
          "selected_ao": 0,
          "batch_name": "",
          "bg_status_show": 0,
          "bgbake": 0
        }
      },
      "name": "Scene",
      "nodes": [
        0,
        1,
        2,
        3,
        4,
        5
      ]
    }
  ],
  "nodes": [
    {
      "extras": {
        "SB_uv_used_for_bake": "SimpleBake",
        "LightmapID": "Saloon_ID005_LM_TX.png"
      },
      "mesh": 0,
      "name": "Saloon_ID005"
    },
    {
      "extras": {
        "SB_uv_used_for_bake": "SimpleBake",
        "LightmapID": "Props_ID004_LM_TX.png"
      },
      "mesh": 1,
      "name": "Props_ID004"
    },
    {
      "extras": {
        "SB_uv_used_for_bake": "SimpleBake",
        "LightmapID": "Ground_ID002_LM_TX.png"
      },
      "mesh": 2,
      "name": "Ground_ID002"
    },
    {
      "extras": {
        "SB_uv_used_for_bake": "SimpleBake",
        "LightmapID": "Buildings01_ID001_LM_TX.png"
      },
      "mesh": 3,
      "name": "Buildings01_ID001"
    },
    {
      "extras": {
        "SB_uv_used_for_bake": "SimpleBake",
        "LightmapID": "Hotel_ID003_LM_TX.png"
      },
      "mesh": 4,
      "name": "Hotel_ID003"
    },
    {
      "extras": {
        "SB_uv_used_for_bake": "SimpleBake",
        "LightmapID": "Vehicles_ID006_LM_TX.png"
      },
      "mesh": 5,
      "name": "Vehicles_ID006"
    }
  ],
  "materials": [
    {
      "doubleSided": true,
      "name": "Mat Texture 02",
      "pbrMetallicRoughness": {
        "baseColorTexture": {
          "index": 0
        },
        "metallicFactor": 0,
        "roughnessFactor": 0.5527864098548889
      }
    },
    {
      "doubleSided": true,
      "name": "Mat Texture_01_A",
      "pbrMetallicRoughness": {
        "baseColorTexture": {
          "index": 1
        },
        "metallicFactor": 0,
        "roughnessFactor": 0.5527864098548889
      }
    },
    {
      "doubleSided": true,
      "name": "Mat Texture_03",
      "pbrMetallicRoughness": {
        "baseColorTexture": {
          "index": 2
        },
        "metallicFactor": 0,
        "roughnessFactor": 0.5527864098548889
      }
    },
    {
      "doubleSided": true,
      "emissiveFactor": [
        1,
        1,
        1
      ],
      "emissiveTexture": {
        "index": 3
      },
      "name": "Material_04_A",
      "pbrMetallicRoughness": {
        "baseColorTexture": {
          "index": 4
        },
        "metallicFactor": 0,
        "roughnessFactor": 0.5527864098548889
      }
    },
    {
      "doubleSided": true,
      "name": "Mat Texture 01",
      "pbrMetallicRoughness": {
        "baseColorTexture": {
          "index": 5
        },
        "metallicFactor": 0,
        "roughnessFactor": 0.5527864098548889
      }
    },
    {
      "doubleSided": true,
      "name": "Glass",
      "pbrMetallicRoughness": {
        "baseColorTexture": {
          "index": 6
        },
        "metallicFactor": 0,
        "roughnessFactor": 0.5527864098548889
      }
    },
    {
      "alphaMode": "BLEND",
      "doubleSided": true,
      "name": "Mat texture 03",
      "pbrMetallicRoughness": {
        "baseColorTexture": {
          "index": 7
        },
        "metallicFactor": 0,
        "roughnessFactor": 0.5527864098548889
      }
    }
  ],
  "meshes": [
    {
      "name": "Mesh.004",
      "primitives": [
        {
          "attributes": {
            "POSITION": 0,
            "NORMAL": 1,
            "TEXCOORD_0": 2,
            "TEXCOORD_1": 3
          },
          "indices": 4,
          "material": 0
        }
      ]
    },
    {
      "name": "Mesh.017",
      "primitives": [
        {
          "attributes": {
            "POSITION": 5,
            "NORMAL": 6,
            "TEXCOORD_0": 7,
            "TEXCOORD_1": 8
          },
          "indices": 9,
          "material": 1
        }
      ]
    },
    {
      "name": "Mesh.027",
      "primitives": [
        {
          "attributes": {
            "POSITION": 10,
            "NORMAL": 11,
            "TEXCOORD_0": 12,
            "TEXCOORD_1": 13
          },
          "indices": 14,
          "material": 1
        }
      ]
    },
    {
      "name": "Mesh.030",
      "primitives": [
        {
          "attributes": {
            "POSITION": 15,
            "NORMAL": 16,
            "TEXCOORD_0": 17,
            "TEXCOORD_1": 18
          },
          "indices": 19,
          "material": 1
        },
        {
          "attributes": {
            "POSITION": 20,
            "NORMAL": 21,
            "TEXCOORD_0": 22,
            "TEXCOORD_1": 23
          },
          "indices": 24,
          "material": 2
        }
      ]
    },
    {
      "name": "Scene",
      "primitives": [
        {
          "attributes": {
            "POSITION": 25,
            "NORMAL": 26,
            "TEXCOORD_0": 27,
            "TEXCOORD_1": 28
          },
          "indices": 29,
          "material": 3
        },
        {
          "attributes": {
            "POSITION": 30,
            "NORMAL": 31,
            "TEXCOORD_0": 32,
            "TEXCOORD_1": 33
          },
          "indices": 34,
          "material": 4
        },
        {
          "attributes": {
            "POSITION": 35,
            "NORMAL": 36,
            "TEXCOORD_0": 37,
            "TEXCOORD_1": 38
          },
          "indices": 39,
          "material": 1
        },
        {
          "attributes": {
            "POSITION": 40,
            "NORMAL": 41,
            "TEXCOORD_0": 42,
            "TEXCOORD_1": 43
          },
          "indices": 44,
          "material": 5
        },
        {
          "attributes": {
            "POSITION": 45,
            "NORMAL": 46,
            "TEXCOORD_0": 47,
            "TEXCOORD_1": 48
          },
          "indices": 49,
          "material": 6
        }
      ]
    },
    {
      "name": "Mesh.037",
      "primitives": [
        {
          "attributes": {
            "POSITION": 50,
            "NORMAL": 51,
            "TEXCOORD_0": 52,
            "TEXCOORD_1": 53
          },
          "indices": 54,
          "material": 1
        }
      ]
    }
  ],
  "textures": [
    {
      "sampler": 0,
      "source": 0
    },
    {
      "sampler": 0,
      "source": 1
    },
    {
      "sampler": 0,
      "source": 2
    },
    {
      "sampler": 0,
      "source": 3
    },
    {
      "sampler": 0,
      "source": 4
    },
    {
      "sampler": 0,
      "source": 5
    },
    {
      "sampler": 0,
      "source": 6
    },
    {
      "sampler": 0,
      "source": 7
    }
  ],
  "images": [
    {
      "name": "PolygonWestern_Texture_02",
      "uri": "West_demo_aggr_ID_img0.png"
    },
    {
      "name": "PolygonWestern_Texture_01_A",
      "uri": "West_demo_aggr_ID_img1.png"
    },
    {
      "name": "PolygonWestern_Texture_03",
      "uri": "West_demo_aggr_ID_img2.png"
    },
    {
      "name": "EmissiveColor_Texture",
      "uri": "West_demo_aggr_ID_img3.png"
    },
    {
      "name": "DiffuseColor_Texture",
      "uri": "West_demo_aggr_ID_img4.png"
    },
    {
      "name": "DiffuseColor_Texture_1",
      "uri": "West_demo_aggr_ID_img5.png"
    },
    {
      "name": "DiffuseColor_Texture_2",
      "uri": "West_demo_aggr_ID_img6.png"
    },
    {
      "name": "DiffuseColor_Texture_3-DiffuseColor_Texture_3",
      "uri": "West_demo_aggr_ID_img7.png"
    }
  ],
  "accessors": [
    {
      "bufferView": 0,
      "componentType": 5126,
      "count": 40701,
      "max": [
        -4.726078987121582,
        9.731521606445312,
        8.55879020690918
      ],
      "min": [
        -21.381271362304688,
        -0.18247155845165253,
        -8.125916481018066
      ],
      "type": "VEC3"
    },
    {
      "bufferView": 1,
      "componentType": 5126,
      "count": 40701,
      "type": "VEC3"
    },
    {
      "bufferView": 2,
      "componentType": 5126,
      "count": 40701,
      "type": "VEC2"
    },
    {
      "bufferView": 3,
      "componentType": 5126,
      "count": 40701,
      "type": "VEC2"
    },
    {
      "bufferView": 4,
      "componentType": 5123,
      "count": 67044,
      "type": "SCALAR"
    },
    {
      "bufferView": 5,
      "componentType": 5126,
      "count": 14447,
      "max": [
        8.533469200134277,
        2.761721134185791,
        8.435240745544434
      ],
      "min": [
        -7.363694190979004,
        -0.3137933313846588,
        -17.95223045349121
      ],
      "type": "VEC3"
    },
    {
      "bufferView": 6,
      "componentType": 5126,
      "count": 14447,
      "type": "VEC3"
    },
    {
      "bufferView": 7,
      "componentType": 5126,
      "count": 14447,
      "type": "VEC2"
    },
    {
      "bufferView": 8,
      "componentType": 5126,
      "count": 14447,
      "type": "VEC2"
    },
    {
      "bufferView": 9,
      "componentType": 5123,
      "count": 19842,
      "type": "SCALAR"
    },
    {
      "bufferView": 10,
      "componentType": 5126,
      "count": 1447,
      "max": [
        27.334815979003906,
        0.2596350312232971,
        19.593936920166016
      ],
      "min": [
        -25.384056091308594,
        -0.5521438121795654,
        -29.28017807006836
      ],
      "type": "VEC3"
    },
    {
      "bufferView": 11,
      "componentType": 5126,
      "count": 1447,
      "type": "VEC3"
    },
    {
      "bufferView": 12,
      "componentType": 5126,
      "count": 1447,
      "type": "VEC2"
    },
    {
      "bufferView": 13,
      "componentType": 5126,
      "count": 1447,
      "type": "VEC2"
    },
    {
      "bufferView": 14,
      "componentType": 5123,
      "count": 1680,
      "type": "SCALAR"
    },
    {
      "bufferView": 15,
      "componentType": 5126,
      "count": 14528,
      "max": [
        18.57034683227539,
        5.223249912261963,
        -5.069098472595215
      ],
      "min": [
        8.370570182800293,
        -0.5632833242416382,
        -13.529977798461914
      ],
      "type": "VEC3"
    },
    {
      "bufferView": 16,
      "componentType": 5126,
      "count": 14528,
      "type": "VEC3"
    },
    {
      "bufferView": 17,
      "componentType": 5126,
      "count": 14528,
      "type": "VEC2"
    },
    {
      "bufferView": 18,
      "componentType": 5126,
      "count": 14528,
      "type": "VEC2"
    },
    {
      "bufferView": 19,
      "componentType": 5123,
      "count": 22050,
      "type": "SCALAR"
    },
    {
      "bufferView": 20,
      "componentType": 5126,
      "count": 11822,
      "max": [
        6.219578266143799,
        11.659969329833984,
        -12.131574630737305
      ],
      "min": [
        -1.4262630939483643,
        -0.28497743606567383,
        -24.051860809326172
      ],
      "type": "VEC3"
    },
    {
      "bufferView": 21,
      "componentType": 5126,
      "count": 11822,
      "type": "VEC3"
    },
    {
      "bufferView": 22,
      "componentType": 5126,
      "count": 11822,
      "type": "VEC2"
    },
    {
      "bufferView": 23,
      "componentType": 5126,
      "count": 11822,
      "type": "VEC2"
    },
    {
      "bufferView": 24,
      "componentType": 5123,
      "count": 20865,
      "type": "SCALAR"
    },
    {
      "bufferView": 25,
      "componentType": 5126,
      "count": 9485,
      "max": [
        18.501480102539062,
        8.119061470031738,
        8.091771125793457
      ],
      "min": [
        10.203055381774902,
        -0.6674721837043762,
        -2.4021084308624268
      ],
      "type": "VEC3"
    },
    {
      "bufferView": 26,
      "componentType": 5126,
      "count": 9485,
      "type": "VEC3"
    },
    {
      "bufferView": 27,
      "componentType": 5126,
      "count": 9485,
      "type": "VEC2"
    },
    {
      "bufferView": 28,
      "componentType": 5126,
      "count": 9485,
      "type": "VEC2"
    },
    {
      "bufferView": 29,
      "componentType": 5123,
      "count": 15414,
      "type": "SCALAR"
    },
    {
      "bufferView": 30,
      "componentType": 5126,
      "count": 576,
      "max": [
        18.464862823486328,
        5.15793514251709,
        7.180747985839844
      ],
      "min": [
        18.379762649536133,
        0.0448562391102314,
        -1.4981348514556885
      ],
      "type": "VEC3"
    },
    {
      "bufferView": 31,
      "componentType": 5126,
      "count": 576,
      "type": "VEC3"
    },
    {
      "bufferView": 32,
      "componentType": 5126,
      "count": 576,
      "type": "VEC2"
    },
    {
      "bufferView": 33,
      "componentType": 5126,
      "count": 576,
      "type": "VEC2"
    },
    {
      "bufferView": 34,
      "componentType": 5123,
      "count": 1080,
      "type": "SCALAR"
    },
    {
      "bufferView": 35,
      "componentType": 5126,
      "count": 13917,
      "max": [
        18.63889503479004,
        7.91340446472168,
        8.195500373840332
      ],
      "min": [
        8.439117431640625,
        -0.6674724817276001,
        -2.5727956295013428
      ],
      "type": "VEC3"
    },
    {
      "bufferView": 36,
      "componentType": 5126,
      "count": 13917,
      "type": "VEC3"
    },
    {
      "bufferView": 37,
      "componentType": 5126,
      "count": 13917,
      "type": "VEC2"
    },
    {
      "bufferView": 38,
      "componentType": 5126,
      "count": 13917,
      "type": "VEC2"
    },
    {
      "bufferView": 39,
      "componentType": 5123,
      "count": 21930,
      "type": "SCALAR"
    },
    {
      "bufferView": 40,
      "componentType": 5126,
      "count": 80,
      "max": [
        10.483359336853027,
        5.485164165496826,
        7.056418418884277
      ],
      "min": [
        9.407604217529297,
        0.8249254822731018,
        -1.3666040897369385
      ],
      "type": "VEC3"
    },
    {
      "bufferView": 41,
      "componentType": 5126,
      "count": 80,
      "type": "VEC3"
    },
    {
      "bufferView": 42,
      "componentType": 5126,
      "count": 80,
      "type": "VEC2"
    },
    {
      "bufferView": 43,
      "componentType": 5126,
      "count": 80,
      "type": "VEC2"
    },
    {
      "bufferView": 44,
      "componentType": 5123,
      "count": 120,
      "type": "SCALAR"
    },
    {
      "bufferView": 45,
      "componentType": 5126,
      "count": 188,
      "max": [
        10.439584732055664,
        7.662179946899414,
        4.213833332061768
      ],
      "min": [
        10.328182220458984,
        6.097818374633789,
        1.4757051467895508
      ],
      "type": "VEC3"
    },
    {
      "bufferView": 46,
      "componentType": 5126,
      "count": 188,
      "type": "VEC3"
    },
    {
      "bufferView": 47,
      "componentType": 5126,
      "count": 188,
      "type": "VEC2"
    },
    {
      "bufferView": 48,
      "componentType": 5126,
      "count": 188,
      "type": "VEC2"
    },
    {
      "bufferView": 49,
      "componentType": 5123,
      "count": 360,
      "type": "SCALAR"
    },
    {
      "bufferView": 50,
      "componentType": 5126,
      "count": 14091,
      "max": [
        7.786895751953125,
        2.957916498184204,
        10.339627265930176
      ],
      "min": [
        -12.266792297363281,
        -0.18527007102966309,
        -5.181900978088379
      ],
      "type": "VEC3"
    },
    {
      "bufferView": 51,
      "componentType": 5126,
      "count": 14091,
      "type": "VEC3"
    },
    {
      "bufferView": 52,
      "componentType": 5126,
      "count": 14091,
      "type": "VEC2"
    },
    {
      "bufferView": 53,
      "componentType": 5126,
      "count": 14091,
      "type": "VEC2"
    },
    {
      "bufferView": 54,
      "componentType": 5123,
      "count": 24285,
      "type": "SCALAR"
    }
  ],
  "bufferViews": [
    {
      "buffer": 0,
      "byteLength": 488412,
      "byteOffset": 0
    },
    {
      "buffer": 0,
      "byteLength": 488412,
      "byteOffset": 488412
    },
    {
      "buffer": 0,
      "byteLength": 325608,
      "byteOffset": 976824
    },
    {
      "buffer": 0,
      "byteLength": 325608,
      "byteOffset": 1302432
    },
    {
      "buffer": 0,
      "byteLength": 134088,
      "byteOffset": 1628040
    },
    {
      "buffer": 0,
      "byteLength": 173364,
      "byteOffset": 1762128
    },
    {
      "buffer": 0,
      "byteLength": 173364,
      "byteOffset": 1935492
    },
    {
      "buffer": 0,
      "byteLength": 115576,
      "byteOffset": 2108856
    },
    {
      "buffer": 0,
      "byteLength": 115576,
      "byteOffset": 2224432
    },
    {
      "buffer": 0,
      "byteLength": 39684,
      "byteOffset": 2340008
    },
    {
      "buffer": 0,
      "byteLength": 17364,
      "byteOffset": 2379692
    },
    {
      "buffer": 0,
      "byteLength": 17364,
      "byteOffset": 2397056
    },
    {
      "buffer": 0,
      "byteLength": 11576,
      "byteOffset": 2414420
    },
    {
      "buffer": 0,
      "byteLength": 11576,
      "byteOffset": 2425996
    },
    {
      "buffer": 0,
      "byteLength": 3360,
      "byteOffset": 2437572
    },
    {
      "buffer": 0,
      "byteLength": 174336,
      "byteOffset": 2440932
    },
    {
      "buffer": 0,
      "byteLength": 174336,
      "byteOffset": 2615268
    },
    {
      "buffer": 0,
      "byteLength": 116224,
      "byteOffset": 2789604
    },
    {
      "buffer": 0,
      "byteLength": 116224,
      "byteOffset": 2905828
    },
    {
      "buffer": 0,
      "byteLength": 44100,
      "byteOffset": 3022052
    },
    {
      "buffer": 0,
      "byteLength": 141864,
      "byteOffset": 3066152
    },
    {
      "buffer": 0,
      "byteLength": 141864,
      "byteOffset": 3208016
    },
    {
      "buffer": 0,
      "byteLength": 94576,
      "byteOffset": 3349880
    },
    {
      "buffer": 0,
      "byteLength": 94576,
      "byteOffset": 3444456
    },
    {
      "buffer": 0,
      "byteLength": 41732,
      "byteOffset": 3539032
    },
    {
      "buffer": 0,
      "byteLength": 113820,
      "byteOffset": 3580764
    },
    {
      "buffer": 0,
      "byteLength": 113820,
      "byteOffset": 3694584
    },
    {
      "buffer": 0,
      "byteLength": 75880,
      "byteOffset": 3808404
    },
    {
      "buffer": 0,
      "byteLength": 75880,
      "byteOffset": 3884284
    },
    {
      "buffer": 0,
      "byteLength": 30828,
      "byteOffset": 3960164
    },
    {
      "buffer": 0,
      "byteLength": 6912,
      "byteOffset": 3990992
    },
    {
      "buffer": 0,
      "byteLength": 6912,
      "byteOffset": 3997904
    },
    {
      "buffer": 0,
      "byteLength": 4608,
      "byteOffset": 4004816
    },
    {
      "buffer": 0,
      "byteLength": 4608,
      "byteOffset": 4009424
    },
    {
      "buffer": 0,
      "byteLength": 2160,
      "byteOffset": 4014032
    },
    {
      "buffer": 0,
      "byteLength": 167004,
      "byteOffset": 4016192
    },
    {
      "buffer": 0,
      "byteLength": 167004,
      "byteOffset": 4183196
    },
    {
      "buffer": 0,
      "byteLength": 111336,
      "byteOffset": 4350200
    },
    {
      "buffer": 0,
      "byteLength": 111336,
      "byteOffset": 4461536
    },
    {
      "buffer": 0,
      "byteLength": 43860,
      "byteOffset": 4572872
    },
    {
      "buffer": 0,
      "byteLength": 960,
      "byteOffset": 4616732
    },
    {
      "buffer": 0,
      "byteLength": 960,
      "byteOffset": 4617692
    },
    {
      "buffer": 0,
      "byteLength": 640,
      "byteOffset": 4618652
    },
    {
      "buffer": 0,
      "byteLength": 640,
      "byteOffset": 4619292
    },
    {
      "buffer": 0,
      "byteLength": 240,
      "byteOffset": 4619932
    },
    {
      "buffer": 0,
      "byteLength": 2256,
      "byteOffset": 4620172
    },
    {
      "buffer": 0,
      "byteLength": 2256,
      "byteOffset": 4622428
    },
    {
      "buffer": 0,
      "byteLength": 1504,
      "byteOffset": 4624684
    },
    {
      "buffer": 0,
      "byteLength": 1504,
      "byteOffset": 4626188
    },
    {
      "buffer": 0,
      "byteLength": 720,
      "byteOffset": 4627692
    },
    {
      "buffer": 0,
      "byteLength": 169092,
      "byteOffset": 4628412
    },
    {
      "buffer": 0,
      "byteLength": 169092,
      "byteOffset": 4797504
    },
    {
      "buffer": 0,
      "byteLength": 112728,
      "byteOffset": 4966596
    },
    {
      "buffer": 0,
      "byteLength": 112728,
      "byteOffset": 5079324
    },
    {
      "buffer": 0,
      "byteLength": 48572,
      "byteOffset": 5192052
    }
  ],
  "samplers": [
    {
      "magFilter": 9729,
      "minFilter": 9987
    }
  ],
  "buffers": [
    {
      "uri": "West_demo_aggr_ID_data.bin",
      "byteLength": 5240624
    }
  ]
}